<svg width="389" height="336" viewBox="0 0 389 336" fill="none" xmlns="http://www.w3.org/2000/svg">
<g clip-path="url(#clip0)">
<path d="M345.198 67.9662V89.7261L325.069 80.8906L316.9 77.3038L310.543 74.5141L277.865 60.1669L271.509 57.3772L263.339 53.7904L145.781 2.18036H195.349L345.198 67.9662Z" fill="#F2F2F2"/>
<path d="M301.76 52.794C316.286 52.794 328.062 41.0177 328.062 26.4908C328.062 11.964 316.286 0.187683 301.76 0.187683C287.234 0.187683 275.458 11.964 275.458 26.4908C275.458 41.0177 287.234 52.794 301.76 52.794Z" fill="#459EDB"/>
<path d="M315.708 149.239C314.762 149.239 313.838 148.959 313.051 148.433C312.265 147.908 311.652 147.161 311.29 146.287C310.928 145.413 310.833 144.451 311.018 143.524C311.202 142.596 311.658 141.744 312.327 141.075C312.995 140.406 313.848 139.951 314.775 139.766C315.703 139.582 316.664 139.676 317.538 140.038C318.412 140.4 319.159 141.013 319.684 141.8C320.21 142.586 320.49 143.511 320.49 144.457C320.489 145.725 319.985 146.94 319.088 147.837C318.192 148.733 316.976 149.238 315.708 149.239ZM315.708 140.471C314.92 140.471 314.15 140.705 313.494 141.143C312.839 141.581 312.328 142.203 312.026 142.931C311.725 143.66 311.646 144.461 311.8 145.234C311.953 146.007 312.333 146.717 312.89 147.275C313.448 147.832 314.158 148.212 314.931 148.365C315.704 148.519 316.505 148.44 317.233 148.139C317.961 147.837 318.584 147.326 319.022 146.671C319.46 146.015 319.693 145.245 319.693 144.457C319.692 143.4 319.272 142.387 318.525 141.64C317.778 140.893 316.765 140.472 315.708 140.471Z" fill="#3F3D56"/>
<path d="M47.9056 83.4811H37.5442V73.1193H47.9056V83.4811ZM38.3412 82.684H47.1086V73.9163H38.3412V82.684Z" fill="#3F3D56"/>
<path d="M202.131 12.1437H191.77V1.78186H202.131V12.1437ZM192.567 11.3466H201.334V2.57893H192.567V11.3466Z" fill="#3F3D56"/>
<path d="M158.892 64.9972H84.7683V125.176H158.892V64.9972Z" fill="#459EDB"/>
<path d="M290.004 143.508H84.7683V149.885H290.004V143.508Z" fill="#F2F2F2"/>
<path d="M154.11 121.987H79.1891V61.0118H154.11V121.987ZM79.9861 121.19H153.313V61.8089H79.9861V121.19Z" fill="#3F3D56"/>
<path d="M260.115 81.5363H188.382V87.9128H260.115V81.5363Z" fill="#459EDB"/>
<path opacity="0.3" d="M290.004 98.6732H188.382V105.05H290.004V98.6732Z" fill="#459EDB" fill-opacity="0.7"/>
<path d="M255.333 84.7246H182.803V77.551H255.333V84.7246ZM183.6 83.9276H254.536V78.3481H183.6V83.9276Z" fill="#3F3D56"/>
<path d="M285.222 101.861H182.803V94.6879H285.222V101.861ZM183.6 101.064H284.425V95.4849H183.6V101.064Z" fill="#3F3D56"/>
<path d="M285.222 146.696H79.1891V139.523H285.222V146.696ZM79.9861 145.899H284.425V140.32H79.9861V145.899Z" fill="#3F3D56"/>
<path d="M290.004 163.435H84.7683V169.811H290.004V163.435Z" fill="#F2F2F2"/>
<path d="M285.222 166.623H79.1891V159.449H285.222V166.623ZM79.9861 165.826H284.425V160.247H79.9861V165.826Z" fill="#3F3D56"/>
<path d="M290.004 183.361H84.7683V189.738H290.004V183.361Z" fill="#F2F2F2"/>
<path d="M285.222 186.55H79.1891V179.376H285.222V186.55ZM79.9861 185.753H284.425V180.173H79.9861V185.753Z" fill="#3F3D56"/>
<path d="M290.004 203.288H84.7683V209.665H290.004V203.288Z" fill="#F2F2F2"/>
<path d="M285.222 206.476H79.1891V199.303H285.222V206.476ZM79.9861 205.679H284.425V200.1H79.9861V205.679Z" fill="#3F3D56"/>
<path d="M290.004 223.215H84.7683V229.591H290.004V223.215Z" fill="#F2F2F2"/>
<path d="M285.222 226.403H79.1891V219.229H285.222V226.403ZM79.9861 225.606H284.425V220.026H79.9861V225.606Z" fill="#3F3D56"/>
<path d="M290.004 243.141H84.7683V249.518H290.004V243.141Z" fill="#F2F2F2"/>
<path d="M285.222 246.33H79.1891V239.156H285.222V246.33ZM79.9861 245.532H284.425V239.953H79.9861V245.532Z" fill="#3F3D56"/>
<path d="M302.358 284.793H67.4329V25.9408H302.358V284.793ZM68.2299 283.996H301.561V26.7379H68.2299V283.996Z" fill="#3F3D56"/>
</g>
<path d="M309.799 195.744C301.622 188.823 291.615 184.436 280.996 183.115C270.378 181.795 259.605 183.598 249.99 188.306C240.375 193.013 232.331 200.423 226.838 209.632C221.344 218.841 218.638 229.453 219.049 240.177C219.459 250.9 222.968 261.273 229.15 270.032C235.331 278.792 243.917 285.561 253.864 289.516C263.811 293.47 274.69 294.44 285.176 292.307C295.662 290.173 305.304 285.029 312.929 277.5L380.633 334.797C381.144 335.229 381.734 335.556 382.37 335.759C383.007 335.963 383.677 336.038 384.343 335.982C385.008 335.925 385.656 335.738 386.25 335.43C386.843 335.122 387.37 334.701 387.801 334.188C388.232 333.676 388.558 333.084 388.76 332.446C388.963 331.807 389.038 331.135 388.982 330.468C388.925 329.8 388.738 329.15 388.431 328.555C388.125 327.96 387.704 327.431 387.193 326.999L319.489 269.702C327.354 258.381 330.72 244.522 328.928 230.841C327.136 217.16 320.314 204.643 309.799 195.744ZM305.435 264.185C300.16 270.454 293.151 275.014 285.292 277.288C277.434 279.562 269.08 279.447 261.286 276.959C253.493 274.471 246.61 269.721 241.508 263.309C236.406 256.898 233.315 249.113 232.624 240.939C231.934 232.766 233.676 224.57 237.629 217.389C241.583 210.208 247.571 204.365 254.836 200.597C262.101 196.829 270.317 195.307 278.445 196.222C286.573 197.138 294.247 200.45 300.498 205.74C308.88 212.834 314.109 222.976 315.035 233.937C315.961 244.898 312.508 255.778 305.435 264.185Z" fill="#333333"/>
<circle cx="8.34316" cy="34.6032" r="8.34316" fill="#162FE5"/>
<defs>
<clipPath id="clip0">
<rect width="307.654" height="301.397" fill="white" transform="translate(37.5442 0.187683)"/>
</clipPath>
</defs>
</svg>
